<svg width="21" height="18" viewBox="0 0 21 18" fill="none">
    <path d="M13.0243 17.509C12.7663 17.509 12.5063 17.4237 12.2878 17.2468C11.7885 16.8412 11.7157 16.1068 12.1214 15.6074L17.697 8.77111L12.7497 2.3675C12.3565 1.8578 12.448 1.12756 12.9598 0.732275C13.4695 0.336991 14.2018 0.434772 14.593 0.9424L20.104 8.07832C20.4348 8.50689 20.4265 9.10814 20.0853 9.52631L13.9251 17.0783C13.6963 17.3613 13.3613 17.509 13.0243 17.509Z" fill="#AEFF5E"/>
    <path d="M18.7018 9.95693H2.00208C1.35715 9.95693 0.837036 9.43473 0.837036 8.79188C0.837036 8.14902 1.35715 7.62683 2.00208 7.62683H18.7018C19.3467 7.62683 19.8669 8.14902 19.8669 8.79188C19.8669 9.43473 19.3467 9.95693 18.7018 9.95693Z" fill="#AEFF5E"/>
</svg>